<?xml version="1.0" encoding="UTF-8"?>
<svg version="1.1" xmlns="http://www.w3.org/2000/svg" width="500" height="150">
<path d="M0 0 C2.25 0.375 2.25 0.375 3.25 1.375 C4.26542496 8.53226722 1.00162059 13.75384124 -2.1875 20 C-3.29368722 22.23533799 -4.39650332 24.4723471 -5.49609375 26.7109375 C-6.32149658 28.38687988 -6.32149658 28.38687988 -7.16357422 30.09667969 C-18.60612475 52.93152104 -18.60612475 52.93152104 -22.8125 77.75 C-22.7815625 79.544375 -22.7815625 79.544375 -22.75 81.375 C-22.09 81.705 -21.43 82.035 -20.75 82.375 C-15.28502001 80.38773455 -11.88110928 77.15689469 -8.75 72.375 C-8.0573372 70.76940231 -7.41274934 69.14238437 -6.8125 67.5 C-3.15899367 57.59193139 4.53823627 49.65397548 13.625 44.4375 C18.28552143 43.0714851 22.43947944 42.52178267 27.25 43.375 C30.375 45.4375 30.375 45.4375 32.25 48.375 C33.0106268 53.60430922 32.0938246 56.97165868 29.25 61.375 C23.10933211 69.03377745 14.7452263 73.28605021 5.25 75.375 C3.93 75.375 2.61 75.375 1.25 75.375 C1.70142881 76.66909592 2.16141021 77.96021059 2.625 79.25 C2.88023437 79.96929687 3.13546875 80.68859375 3.3984375 81.4296875 C4.18877783 83.55657994 4.18877783 83.55657994 6.25 85.375 C12.70922369 86.5274756 17.88849 84.93478057 23.25 81.375 C30.98944143 75.57429641 33.73440948 70.59098482 35.62304688 61.13085938 C36.33117251 57.93984971 36.86682048 55.76669462 39.18359375 53.3984375 C42.01527349 51.99597986 44.13610438 52.03653308 47.25 52.375 C49.60953094 54.73453094 49.74141413 56.15395617 50.25 59.375 C50.806875 58.77171875 51.36375 58.1684375 51.9375 57.546875 C57.53636559 51.68319819 62.3107744 47.24662805 70.4375 45.8125 C74.5457555 46.6341511 75.84958551 47.94583644 78.25 51.375 C78.9421719 54.70862201 79.17738357 57.97523095 79.25 61.375 C79.6625 60.96507812 80.075 60.55515625 80.5 60.1328125 C84.93060595 55.99889891 88.20092343 54.15552601 94.25 53.375 C97.27723175 54.04771817 98.73724029 54.93296576 101.0625 56.9375 C103.7217395 62.39593898 102.50362196 68.03011089 100.75 73.625 C100.4715625 74.41390625 100.193125 75.2028125 99.90625 76.015625 C99.19657056 78.56709157 99.13785252 80.73953412 99.25 83.375 C103.01520604 83.05226805 105.25887698 82.02900906 107.84765625 79.25 C111.08880813 74.91642646 113.63391713 70.1020431 116.25 65.375 C117.24 66.035 118.23 66.695 119.25 67.375 C117.96843235 75.615778 113.56304971 83.25422446 106.8984375 88.2890625 C102.48997328 91.19321666 99.27469448 91.75676589 94.1171875 90.91015625 C91.20472143 90.07541179 89.93235747 88.86488905 88.25 86.375 C87.12566549 81.85210891 87.39612944 78.76055414 88.6875 74.3125 C89.77580148 70.52052577 90.43129248 67.32717597 90.25 63.375 C87.01932473 63.67999382 85.52487089 64.12119585 83.109375 66.3515625 C77.05252669 73.95627204 72.06413308 81.94173141 67.25 90.375 C61.5 89.5 61.5 89.5 59.25 88.375 C59.8047105 82.22403297 61.22989757 76.92342903 63.3125 71.125 C63.87150109 69.55928527 64.42509871 67.99162835 64.97265625 66.421875 C65.34015991 65.39852051 65.34015991 65.39852051 65.71508789 64.35449219 C66.42391336 62.07316616 66.42391336 62.07316616 66.25 58.375 C62.22493927 58.47317221 59.82917275 59.37351459 56.9375 62.0625 C49.4368326 70.1452591 43.82036738 80.40746512 39.25 90.375 C32.5 89.5 32.5 89.5 30.25 88.375 C29.625 86.3125 29.625 86.3125 29.25 84.375 C28.66992188 84.78492187 28.08984375 85.19484375 27.4921875 85.6171875 C26.71101562 86.15601562 25.92984375 86.69484375 25.125 87.25 C24.35929688 87.78367187 23.59359375 88.31734375 22.8046875 88.8671875 C15.97198973 92.89994184 9.00409522 93.18395141 1.25 92.375 C-2.77665155 90.90109358 -5.5569046 88.030159 -7.75 84.375 C-7.75 83.715 -7.75 83.055 -7.75 82.375 C-8.52085937 82.86871094 -9.29171875 83.36242187 -10.0859375 83.87109375 C-11.59027344 84.83208984 -11.59027344 84.83208984 -13.125 85.8125 C-14.12273437 86.45058594 -15.12046875 87.08867188 -16.1484375 87.74609375 C-20.78636625 90.65002211 -24.32223786 91.02323541 -29.75 90.375 C-32.1875 89 -32.1875 89 -33.75 86.375 C-34.64639247 83.06922891 -35.2586118 79.76299233 -35.75 76.375 C-36.15089844 76.88289063 -36.55179688 77.39078125 -36.96484375 77.9140625 C-42.13643915 84.17626646 -47.50486368 89.15182513 -55.4375 91.4375 C-59.42026543 91.36235348 -61.46424258 90.61528915 -64.75 88.375 C-66.625 85.6875 -66.625 85.6875 -67.75 83.375 C-68.19988281 83.808125 -68.64976562 84.24125 -69.11328125 84.6875 C-74.10269045 89.00698853 -77.67531667 90.0194575 -84.234375 89.87890625 C-87.16626179 89.29161837 -88.60750888 88.44494628 -90.75 86.375 C-92.64068294 79.69458693 -90.991606 73.98560347 -89.34375 67.3515625 C-88.45086556 64.46198381 -88.45086556 64.46198381 -89.75 62.375 C-92.84171852 61.83394926 -94.95907052 61.87212508 -97.6484375 63.58203125 C-106.14488925 70.75196188 -112.34335417 79.74953205 -117.75 89.375 C-124.27307692 88.75961538 -124.27307692 88.75961538 -126.6875 86.8125 C-127.038125 86.338125 -127.38875 85.86375 -127.75 85.375 C-128.36875 85.99375 -128.9875 86.6125 -129.625 87.25 C-134.44997609 90.53098374 -139.82626275 91.88347604 -145.625 90.875 C-148.50263236 88.8437301 -149.98247605 86.3863371 -151.75 83.375 C-152.20890625 83.77332031 -152.6678125 84.17164062 -153.140625 84.58203125 C-154.40724639 85.67568964 -155.67964294 86.76268684 -156.95703125 87.84375 C-158.22686381 88.92822574 -159.46802057 90.04669666 -160.6875 91.1875 C-163.89018277 93.03146887 -167.0725611 93.49953478 -170.75 93.375 C-174.41630514 91.8270045 -176.96110971 89.95278059 -178.75 86.375 C-180.37212503 76.72137787 -175.80583928 68.13965065 -170.36328125 60.46875 C-164.38642002 52.71185503 -156.91666824 46.60127423 -146.96484375 44.8984375 C-141.88830059 44.72998509 -138.04401956 45.4765368 -133.75 48.375 C-131.27657734 52.08513399 -131.36496514 53.98560262 -131.75 58.375 C-132.71873032 59.73122245 -133.71434215 61.06917053 -134.75 62.375 C-134.5540625 62.96023437 -134.358125 63.54546875 -134.15625 64.1484375 C-133.55481793 67.4447479 -134.97045905 69.00527432 -136.6875 71.8125 C-138.98766404 75.57973906 -140.14561695 77.92632775 -139.75 82.375 C-137.94579785 83.10598074 -137.94579785 83.10598074 -135.75 83.375 C-129.40387061 80.42032437 -124.66279461 74.60488879 -121.75 68.375 C-120.85067484 64.95834982 -120.14883274 61.58515935 -119.5859375 58.09765625 C-118.75 55.375 -118.75 55.375 -116.86328125 54.0078125 C-114.07861801 53.1739577 -111.63830977 53.18244602 -108.75 53.375 C-107.75 54.375 -107.75 54.375 -107.65234375 56.66015625 C-107.66394531 57.57667969 -107.67554688 58.49320313 -107.6875 59.4375 C-107.69652344 60.35660156 -107.70554687 61.27570313 -107.71484375 62.22265625 C-107.72644531 62.93292969 -107.73804688 63.64320312 -107.75 64.375 C-106.96625 63.34375 -106.1825 62.3125 -105.375 61.25 C-101.0631926 56.26859428 -95.80859846 52.27405662 -89.28125 50.828125 C-84.93272705 50.56721362 -83.24634133 50.98206312 -79.75 53.75 C-76.0884605 58.55577059 -76.15912689 62.45859526 -76.75 68.375 C-77.64938466 71.87435256 -78.71329875 75.2669352 -79.875 78.6875 C-80.85319535 81.22089802 -80.85319535 81.22089802 -80.75 83.375 C-75.85440895 82.67562985 -73.40506774 81.48119391 -70.25 77.625 C-67.45769612 73.78249334 -65.4873611 69.80594904 -63.5 65.5 C-58.78534691 55.42846691 -51.24085864 47.49640875 -40.75 43.375 C-37.96398777 42.44632926 -36.13933911 42.21157783 -33.25 42.1875 C-32.08984375 42.16623047 -32.08984375 42.16623047 -30.90625 42.14453125 C-28.75 42.375 -28.75 42.375 -25.75 44.375 C-25.48896484 43.726521 -25.22792969 43.07804199 -24.95898438 42.40991211 C-8.26297778 1.1267697 -8.26297778 1.1267697 0 0 Z M-44.87109375 54.2578125 C-51.04372748 60.76883257 -56.01908994 68.34509627 -56.0625 77.5625 C-55.959375 78.820625 -55.85625 80.07875 -55.75 81.375 C-53.54561167 82.25254191 -53.54561167 82.25254191 -50.75 82.375 C-39.68772707 76.96677768 -33.7349971 65.05358482 -28.75 54.375 C-28.02796575 52.0929039 -28.02796575 52.0929039 -27.75 50.375 C-34.02746835 46.1900211 -39.80542897 49.76121872 -44.87109375 54.2578125 Z M12.25 55.375 C8.38711908 59.64449996 5.66423416 63.71806336 4.25 69.375 C11.83655957 67.65322762 17.02764039 64.12732422 22.25 58.375 C24.14320921 55.21173822 24.45478406 53.06111315 24.25 49.375 C18.71004307 49.375 16.25327385 51.74125912 12.25 55.375 Z M-156.75 57.375 C-163.58541426 65.80328229 -168.56954176 74.31118619 -167.75 85.375 C-162.97847071 85.375 -160.47557879 84.56759794 -157 81.25 C-152.70563963 76.64408799 -149.05808273 71.52909349 -145.43066406 66.39208984 C-141.9434902 61.4717451 -141.9434902 61.4717451 -139.75 60.375 C-139.32358125 55.65175086 -139.32358125 55.65175086 -141.0625 51.4375 C-146.37506435 48.09255207 -152.9533842 53.76358497 -156.75 57.375 Z " fill="#582CD5" transform="translate(373.75,26.625)"/>
<path d="M0 0 C1.26358841 -0.00856522 1.26358841 -0.00856522 2.55270386 -0.01730347 C3.47377426 -0.01842133 4.39484467 -0.01953918 5.34382629 -0.02069092 C6.31652466 -0.02565582 7.28922302 -0.03062073 8.29139709 -0.03573608 C11.51566776 -0.05036366 14.73988919 -0.05716156 17.96418762 -0.06268311 C20.20517986 -0.06843511 22.44617209 -0.07419283 24.68716431 -0.07995605 C29.39059173 -0.09046845 34.09400205 -0.09630922 38.79743958 -0.09979248 C44.81532911 -0.10527048 50.83299161 -0.12928283 56.85081005 -0.15776443 C61.48259127 -0.17641943 66.11431819 -0.181598 70.7461338 -0.18312836 C72.96403046 -0.18615013 75.18192627 -0.19416258 77.399786 -0.20731354 C80.5089106 -0.22442967 83.61748577 -0.22247976 86.72663879 -0.21600342 C87.63758804 -0.2252182 88.54853729 -0.23443298 89.48709106 -0.243927 C96.06210853 -0.20117435 101.54875911 0.82639923 107.06575012 4.68341064 C107.59555481 5.22610596 108.1253595 5.76880127 108.67121887 6.32794189 C109.48526184 7.12264893 109.48526184 7.12264893 110.31575012 7.93341064 C114.7581148 14.28767911 115.29784748 20.60359059 115.24690247 28.10137939 C115.2547879 29.54689178 115.2547879 29.54689178 115.26283264 31.02160645 C115.27596595 34.18638633 115.26731808 37.35065747 115.25715637 40.51544189 C115.25917902 42.72686865 115.26209205 44.93829476 115.26585388 47.14971924 C115.27026821 51.77624891 115.26387476 56.4026044 115.24983215 61.02911377 C115.23274099 66.94713203 115.24258693 72.86474206 115.26054955 78.78274536 C115.27141137 83.34677178 115.26793 87.91070207 115.26016617 92.47473145 C115.2581708 94.65633188 115.26060003 96.83794115 115.26760483 99.01953125 C115.27525869 102.07308943 115.26355971 105.1259946 115.24690247 108.17950439 C115.25297516 109.07324768 115.25904785 109.96699097 115.26530457 110.88781738 C115.19974515 117.40426768 114.13652587 122.8823129 110.31575012 128.34747314 C109.77305481 128.87727783 109.2303595 129.40708252 108.67121887 129.95294189 C108.14141418 130.49563721 107.6116095 131.03833252 107.06575012 131.59747314 C100.70181002 136.04659941 94.348132 136.58482066 86.83772278 136.56036377 C85.86750687 136.56883331 84.89729095 136.57730286 83.89767456 136.58602905 C80.71007454 136.60930989 77.52295976 136.6104233 74.33528137 136.60919189 C72.10622467 136.61629886 69.87716978 136.62399864 67.64811707 136.63226318 C62.98291434 136.64568758 58.31788079 136.6472859 53.65266418 136.64141846 C47.69206176 136.63552462 41.73227447 136.66611134 35.77182961 136.70653534 C31.16996432 136.73246012 26.56829406 136.73528538 21.96636581 136.73164368 C19.76965156 136.73333045 17.57292787 136.74293006 15.37628555 136.76078796 C12.29647942 136.78307175 9.21830744 136.77322737 6.13850403 136.75567627 C5.24260056 136.76893951 4.34669708 136.78220276 3.42364502 136.79586792 C-3.33212646 136.70699143 -8.44432471 134.76475386 -14.14128113 131.14044189 C-16.39518738 128.78887939 -16.39518738 128.78887939 -17.70378113 126.51544189 C-18.15882019 125.76005127 -18.61385925 125.00466064 -19.08268738 124.22637939 C-20.69525574 121.04884617 -21.26859528 118.48823266 -21.29518127 114.97465515 C-21.30808197 113.70278099 -21.30808197 113.70278099 -21.32124329 112.4052124 C-21.32550323 111.47793335 -21.32976318 110.5506543 -21.33415222 109.59527588 C-21.34232971 108.61603653 -21.3505072 107.63679718 -21.3589325 106.62788391 C-21.38378258 103.38077402 -21.40030453 100.13370795 -21.41471863 96.88653564 C-21.4200423 95.77644701 -21.42536598 94.66635838 -21.43085098 93.52263069 C-21.45758506 87.64320694 -21.47695633 81.76380442 -21.49137878 75.88433838 C-21.50470179 71.02574774 -21.53252444 66.16757869 -21.57341003 61.30914307 C-21.62281985 55.437689 -21.64751073 49.56661654 -21.65460587 43.69496346 C-21.66130491 41.46194356 -21.67649165 39.22893172 -21.70049667 36.99603081 C-21.73227128 33.86069756 -21.73216574 30.72682297 -21.72477722 27.59136963 C-21.74118256 26.67826019 -21.75758789 25.76515076 -21.77449036 24.82437134 C-21.70916523 18.0106677 -19.80842615 12.88285488 -16.14128113 7.14044189 C-13.78971863 4.88653564 -13.78971863 4.88653564 -11.51628113 3.57794189 C-10.38319519 2.8953833 -10.38319519 2.8953833 -9.22721863 2.19903564 C-6.05500092 0.58916486 -3.5076883 0.01426112 0 0 Z M-12.14128113 15.14044189 C-13.04960626 17.86541729 -13.27027581 19.46175576 -13.28172302 22.26394653 C-13.28743317 23.10226013 -13.29314331 23.94057373 -13.29902649 24.80429077 C-13.30014435 25.72072357 -13.30126221 26.63715637 -13.30241394 27.58135986 C-13.30737885 28.54912354 -13.31234375 29.51688721 -13.31745911 30.51397705 C-13.33208202 33.72020169 -13.33888265 36.92637687 -13.34440613 40.13262939 C-13.35015708 42.35838828 -13.35591482 44.58414715 -13.36167908 46.80990601 C-13.37218916 51.4788435 -13.37803191 56.14776377 -13.3815155 60.81671143 C-13.38700294 66.80126667 -13.41103641 72.78559471 -13.43948746 78.77007866 C-13.45810376 83.36828275 -13.46331889 87.96643197 -13.46485138 92.56467056 C-13.46788026 94.77109139 -13.47591666 96.97751121 -13.48903656 99.18389511 C-13.50607714 102.26968474 -13.50422162 105.35491737 -13.49772644 108.44073486 C-13.50694122 109.3531192 -13.51615601 110.26550354 -13.52565002 111.20553589 C-13.49390349 116.01642775 -13.27927267 119.24277224 -10.14128113 123.14044189 C-4.59671962 128.00883736 -1.05168318 128.29630071 6.17024231 128.31744385 C7.13625366 128.32401505 8.10226501 128.33058624 9.09754944 128.33735657 C12.30439832 128.35711742 15.51120029 128.3687587 18.71809387 128.37872314 C19.81202705 128.38279867 20.90596024 128.3868742 22.03304291 128.39107323 C27.8235658 128.41194637 33.61406491 128.42624242 39.40461731 128.43560791 C45.38805005 128.4466718 51.37111083 128.48106823 57.35441208 128.52077961 C61.95265904 128.54691762 66.55081705 128.55529729 71.14913177 128.55888939 C73.35473898 128.56376302 75.56034201 128.57539898 77.76587677 128.59392738 C80.85409038 128.61825719 83.94133733 128.61736473 87.02961731 128.6104126 C87.93997742 128.62322266 88.85033752 128.63603271 89.7882843 128.64923096 C95.2967472 128.60405975 98.58346187 127.94521074 102.85871887 124.14044189 C107.34930762 119.08054449 107.43400663 114.81848538 107.376297 108.37481689 C107.38330627 107.40822144 107.39031555 106.44162598 107.39753723 105.44573975 C107.4150984 102.26034559 107.40350076 99.07584461 107.38996887 95.89044189 C107.39266432 93.67136464 107.39654717 91.45228855 107.40156555 89.23321533 C107.40745807 84.58629086 107.39890527 79.93967429 107.38020325 75.29278564 C107.3574142 69.34077444 107.37053855 63.38948474 107.3944931 57.4375 C107.40895751 52.85636982 107.40434206 48.27541027 107.39398193 43.6942749 C107.39131644 41.49985671 107.39457813 39.30542296 107.40390015 37.11102295 C107.41407597 34.04228771 107.39854934 30.97471566 107.376297 27.90606689 C107.38439392 27.00199097 107.39249084 26.09791504 107.40083313 25.16644287 C107.32727743 19.68207698 106.63867486 16.39961381 102.85871887 12.14044189 C97.79882146 7.64985314 93.53676236 7.56515413 87.09309387 7.62286377 C86.12649841 7.61585449 85.15990295 7.60884521 84.16401672 7.60162354 C80.97862257 7.58406236 77.79412159 7.59566001 74.60871887 7.60919189 C72.38964162 7.60649645 70.17056552 7.6026136 67.95149231 7.59759521 C63.30456783 7.59170269 58.65795126 7.6002555 54.01106262 7.61895752 C48.05905142 7.64174657 42.10776172 7.62862222 36.15577698 7.60466766 C31.57464679 7.59020326 26.99368724 7.59481871 22.41255188 7.60517883 C20.21813369 7.60784432 18.02369993 7.60458263 15.82929993 7.59526062 C12.76056469 7.5850848 9.69299263 7.60061143 6.62434387 7.62286377 C5.72026794 7.61476685 4.81619202 7.60666992 3.88471985 7.59832764 C-2.9070799 7.6894185 -7.70324802 9.76808603 -12.14128113 15.14044189 Z " fill="#5A2DD8" transform="translate(30.141281127929688,6.85955810546875)"/>
<path d="M0 0 C0.99 0.495 0.99 0.495 2 1 C0.69140673 12.86758722 -3.86416228 21.09828771 -12.94140625 28.890625 C-19.34764449 33.30872034 -27.12653266 36.74048421 -34.66015625 38.6875 C-38.45712272 40.81735097 -40.01820287 44.34920261 -42.125 48.0625 C-43.09696129 49.71341695 -44.07096971 51.36313014 -45.046875 53.01171875 C-45.53865234 53.84880371 -46.03042969 54.68588867 -46.53710938 55.54833984 C-48.72607571 59.21683116 -51.0387318 62.79909671 -53.375 66.375 C-53.81658447 67.05183838 -54.25816895 67.72867676 -54.71313477 68.42602539 C-55.63852264 69.8438972 -56.56439832 71.26145075 -57.49072266 72.67871094 C-59.17598029 75.27066008 -60.84447314 77.87299321 -62.51171875 80.4765625 C-63.10227051 81.39518066 -63.69282227 82.31379883 -64.30126953 83.26025391 C-65.45808017 85.05977276 -66.61151125 86.86146951 -67.76123047 88.66552734 C-68.28475098 89.47715332 -68.80827148 90.2887793 -69.34765625 91.125 C-69.81179932 91.84945312 -70.27594238 92.57390625 -70.75415039 93.3203125 C-72 95 -72 95 -74 96 C-76.16490195 96.09685088 -78.33293803 96.12979438 -80.5 96.125 C-82.24796875 96.12886719 -82.24796875 96.12886719 -84.03125 96.1328125 C-87 96 -87 96 -89 95 C-88.44375926 91.40146298 -87.57469747 88.92919177 -85.55078125 85.91015625 C-85.03878174 85.13599365 -84.52678223 84.36183105 -83.99926758 83.56420898 C-83.44263428 82.73864502 -82.88600098 81.91308105 -82.3125 81.0625 C-81.13427306 79.28461152 -79.95723449 77.50593504 -78.78125 75.7265625 C-78.16507813 74.7974707 -77.54890625 73.86837891 -76.9140625 72.91113281 C-73.65633329 67.95639263 -70.48608528 62.9463917 -67.3125 57.9375 C-66.14216714 56.09229564 -64.97161168 54.24723243 -63.80078125 52.40234375 C-63.30747314 51.62366943 -62.81416504 50.84499512 -62.3059082 50.04272461 C-61.22329639 48.34928414 -60.11490447 46.67235671 -59 45 C-71.02650582 46.84228943 -71.02650582 46.84228943 -82.30078125 51.23046875 C-84 52 -84 52 -87 52 C-86.44197886 48.38465178 -85.29488373 46.98385597 -82.4375 44.75 C-70.15776783 35.88061054 -56.56798423 31.24567764 -42.125 27.25 C-20.36059866 22.21833185 -20.36059866 22.21833185 -4.171875 8.1015625 C-2.70311254 5.43170924 -1.31259938 2.74949794 0 0 Z " fill="#582CD8" transform="translate(123,37)"/>
<path d="M0 0 C0.75383972 -0.0007251 1.50767944 -0.0014502 2.28436279 -0.00219727 C15.65960499 -0.00077697 28.88704026 0.71964768 42.1875 2.1875 C41.1875 5.1875 41.1875 5.1875 39.33203125 6.3203125 C38.56246094 6.64773437 37.79289062 6.97515625 37 7.3125 C36.24332031 7.64507812 35.48664063 7.97765625 34.70703125 8.3203125 C29.10858948 10.24721804 23.65686596 10.31869508 17.8125 10.25 C17.07644531 10.24548828 16.34039062 10.24097656 15.58203125 10.23632812 C13.78381842 10.22465142 11.98564803 10.20672011 10.1875 10.1875 C10.01806885 10.77160645 9.8486377 11.35571289 9.67407227 11.95751953 C8.00100399 17.63848111 6.16172716 23.24125434 4.23046875 28.83911133 C0.28299323 40.34938502 -3.32553533 51.93831728 -6.64352417 63.64483643 C-7.08331985 65.19315956 -7.52762923 66.74020899 -7.97683716 68.28582764 C-10.79056716 78.00218149 -12.56204668 87.01889307 -12.8125 97.1875 C-20.95886654 97.30130256 -20.95886654 97.30130256 -23.8125 95.1875 C-26.54084029 91.64065762 -26.07352155 87.45510429 -25.8125 83.1875 C-20.93159792 58.66948026 -9.08914958 33.83751157 1.1875 11.1875 C-10.16078502 11.68804129 -21.4941869 12.2005599 -32.8125 13.1875 C-32.08057889 8.8390275 -31.3441805 6.97566882 -27.8125 4.1875 C-18.66857867 -0.30133411 -9.94381746 -0.00962227 0 0 Z " fill="#582CD6" transform="translate(187.8125,26.8125)"/>
<path d="M0 0 C3.46618756 1.39084417 4.73795668 2.66040254 6.25 6.0625 C8.56989607 11.84837626 9.15696951 16.62123947 7.1171875 22.578125 C2.96548294 31.76136556 -2.56772701 35.87234687 -11.83911133 39.54003906 C-20.54270407 42.74917348 -29.5604472 45.13883839 -38.50585938 47.57739258 C-52.84842796 51.53763557 -67.32633534 55.98950301 -76 69 C-75.92456848 73.14873379 -75.70153289 75.25837951 -72.8125 78.3125 C-69.92536167 80.044783 -67.23623152 81.09686562 -64 82 C-64.33 82.99 -64.66 83.98 -65 85 C-70.77514219 84.02464265 -75.48517136 82.97734904 -80 79 C-82.81418327 74.37021462 -83.55067475 70.58424485 -82.68359375 65.328125 C-80.33252774 57.32106592 -75.10354138 52.68537008 -68.0546875 48.609375 C-67.04664063 48.07828125 -66.03859375 47.5471875 -65 47 C-63.61167969 46.26523438 -63.61167969 46.26523438 -62.1953125 45.515625 C-51.64650407 40.52305918 -40.26248221 37.90295178 -29.0234375 34.9296875 C-11.77594669 30.62701815 -11.77594669 30.62701815 1 19 C2.45705407 14.62883779 2.89100113 10.00475255 1 5.75 C0.505 4.88375 0.505 4.88375 0 4 C0 2.68 0 1.36 0 0 Z " fill="#C9A9FD" transform="translate(110,18)"/>
<path d="M0 0 C4.45059644 2.60545333 7.66881649 6.50029815 9.17578125 11.453125 C10.37505439 17.60697103 9.57283767 23.00394725 6.5625 28.4375 C2.62799099 33.65228575 -1.938272 37.21728921 -8.4375 38.4375 C-13.92143853 38.34294934 -17.17881013 36.8444519 -21.4375 33.4375 C-24.92000935 29.57850315 -26.57561417 26.65264343 -26.625 21.4375 C-26.63917969 20.756875 -26.65335938 20.07625 -26.66796875 19.375 C-26.4375 17.4375 -26.4375 17.4375 -24.4375 14.4375 C-23.4475 14.4375 -22.4575 14.4375 -21.4375 14.4375 C-21.499375 15.489375 -21.56125 16.54125 -21.625 17.625 C-21.42482706 21.69518311 -21.06716927 23.36955252 -18.4375 26.4375 C-15.67535028 28.10823042 -15.67535028 28.10823042 -12.4375 28.4375 C-9.25112931 27.33452553 -7.20500578 26.37943891 -5.0625 23.75 C-3.90213326 19.45664307 -3.80414043 15.2018588 -5.3125 11 C-6.36824101 9.27856726 -6.36824101 9.27856726 -8.4375 8.4375 C-16.76739711 7.54501102 -22.51601035 10.44721954 -29.0859375 15.45703125 C-34.09003442 19.74733056 -37.9050791 24.05998887 -41.18359375 29.78515625 C-41.59738281 30.33042969 -42.01117188 30.87570313 -42.4375 31.4375 C-43.4275 31.4375 -44.4175 31.4375 -45.4375 31.4375 C-43.52514999 19.15934369 -33.00212336 8.68158213 -23.359375 1.59375 C-16.36121312 -2.61652625 -7.55063001 -3.34467071 0 0 Z " fill="#C7A7FD" transform="translate(108.4375,93.5625)"/>
<path d="M0 0 C3.41147754 1.70573877 5.38347495 3.03500427 7.4375 6.25 C8.2105467 10.02933941 8.25072851 13.35817287 7 17 C3.98375373 20.37532321 1.846369 21.75818028 -2.5 23 C-6.61614912 23 -8.60941556 22.31176212 -12 20 C-14.90288337 16.61330274 -15.58198247 13.46731921 -15.4296875 9 C-14.65395507 5.38931815 -12.60947818 3.54734775 -10 1 C-6.78268449 -0.60865775 -3.4892388 -0.46696133 0 0 Z " fill="#C7A8FD" transform="translate(58,37)"/>
<path d="M0 0 C2.76101146 1.82109266 4.52100548 3.04201097 6 6 C6.52999351 9.78566792 6.83021253 13.44856036 4.98828125 16.890625 C2.84136401 19.54687096 1.25877827 20.91374058 -2 22 C-7.00401435 22.37066773 -9.98301324 22.09881835 -14 19 C-16.83054764 14.75417853 -16.77409187 10.98515163 -16 6 C-12.43945707 -0.84719794 -7.10883901 -1.82917495 0 0 Z " fill="#592DD9" transform="translate(93,27)"/>
</svg>
